<?xml version="1.0" encoding="UTF-8" standalone="no"?>
<!-- Created with Inkscape (http://www.inkscape.org/) -->

<svg
   xmlns:dc="http://purl.org/dc/elements/1.1/"
   xmlns:cc="http://creativecommons.org/ns#"
   xmlns:rdf="http://www.w3.org/1999/02/22-rdf-syntax-ns#"
   xmlns:svg="http://www.w3.org/2000/svg"
   xmlns="http://www.w3.org/2000/svg"
   xmlns:sodipodi="http://sodipodi.sourceforge.net/DTD/sodipodi-0.dtd"
   xmlns:inkscape="http://www.inkscape.org/namespaces/inkscape"
   version="1.1"
   id="svg2"
   xml:space="preserve"
   width="16"
   height="16"
   viewBox="0 0 29.000001 29.000001"
   sodipodi:docname="icon-facebook.svg"
   inkscape:version="0.92.1 r15371"><metadata
     id="metadata8"><rdf:RDF><cc:Work
         rdf:about=""><dc:format>image/svg+xml</dc:format><dc:type
           rdf:resource="http://purl.org/dc/dcmitype/StillImage" /><dc:title></dc:title></cc:Work></rdf:RDF></metadata><defs
     id="defs6" /><sodipodi:namedview
     pagecolor="#ffffff"
     bordercolor="#666666"
     borderopacity="1"
     objecttolerance="10"
     gridtolerance="10"
     guidetolerance="10"
     inkscape:pageopacity="0"
     inkscape:pageshadow="2"
     inkscape:window-width="1600"
     inkscape:window-height="837"
     id="namedview4"
     showgrid="false"
     fit-margin-top="0"
     fit-margin-left="0"
     fit-margin-right="0"
     fit-margin-bottom="0"
     inkscape:zoom="7.8223692"
     inkscape:cx="41.031641"
     inkscape:cy="9.2674821"
     inkscape:window-x="-8"
     inkscape:window-y="-8"
     inkscape:window-maximized="1"
     inkscape:current-layer="g12" /><g
     id="g10"
     inkscape:groupmode="layer"
     inkscape:label="ink_ext_XXXXXX"
     transform="matrix(1.3333333,0,0,-1.3333333,0,29.000001)"><g
       id="g12"
       transform="scale(0.1)"><path
         d="m 217.50001,108.75 c 0,60.06101 -48.689,108.75001 -108.75001,108.75001 C 48.68899,217.50001 0,168.81101 0,108.75 0,54.469733 39.768304,9.4795381 91.757815,1.3211256 V 77.314455 H 64.145509 V 108.75 h 27.612306 v 23.95899 c 0,27.25547 16.235615,42.31055 41.076495,42.31055 11.89814,0 24.34343,-2.12403 24.34343,-2.12403 v -26.76269 h -13.71312 c -13.50943,0 -17.72243,-8.38289 -17.72243,-16.98306 V 108.75 h 30.16113 l -4.82153,-31.435545 h -25.3396 V 1.3211256 C 177.7317,9.4795381 217.50001,54.469733 217.50001,108.75"
         style="fill:#828282;fill-opacity:1;fill-rule:nonzero;stroke:none;stroke-width:0.02124023"
         id="path14"
         inkscape:connector-curvature="0" /><path
         d="M 151.08179,77.314455 155.90332,108.75 h -30.16113 v 20.39976 c 0,8.60017 4.213,16.98306 17.72243,16.98306 h 13.71312 v 26.76269 c 0,0 -12.44529,2.12403 -24.34343,2.12403 -24.84088,0 -41.076495,-15.05508 -41.076495,-42.31055 V 108.75 H 64.145509 V 77.314455 H 91.757815 V 1.3211256 C 97.294507,0.452434 102.96926,0 108.75,0 c 5.78075,0 11.4555,0.452434 16.99219,1.3211256 V 77.314455 h 25.3396"
         style="fill:#ffffff;fill-opacity:1;fill-rule:nonzero;stroke:none;stroke-width:0.02124023"
         id="path16"
         inkscape:connector-curvature="0" /></g></g></svg>